<svg width="60" height="60" viewBox="0 0 60 60" fill="none" xmlns="http://www.w3.org/2000/svg">
<path d="M29.425 28.01H24.89V20.415H30.27C33.195 20.415 34.855 21.72 34.855 24.08C34.855 26.6 32.9225 28.01 29.42 28.01H29.425ZM30.235 31.025H24.8925V39.395H30.47C34.1175 39.395 36.05 37.9325 36.05 35.1825C36.05 32.4325 34.0625 31.025 30.235 31.025ZM60 28.385V31.43C57.18 31.7 55.4575 33.79 54.435 37.1C53.4175 40.3975 53.2775 44.4425 53.385 47.565C53.4975 50.815 50.965 53.815 47.5425 53.815H12.4625C9.0375 53.815 6.505 50.815 6.62 47.565C6.7275 44.4425 6.5875 40.3975 5.57 37.1C4.545 33.79 2.82 31.7 0 31.43V28.385C2.82 28.115 4.5475 26.025 5.5675 22.715C6.5875 19.4175 6.7275 15.3725 6.6175 12.25C6.505 9 9.0375 6 12.4625 6H47.5425C50.9675 6 53.4975 9 53.385 12.25C53.2775 15.3725 53.4175 19.4175 54.435 22.715C55.4575 26.025 57.18 28.115 60 28.385ZM40.1825 35.4275C40.1825 32.0425 37.8 29.595 34.2625 29.2075V29.065C36.8625 28.6425 38.9025 26.2275 38.9025 23.5325C38.9025 19.69 35.87 17.1875 31.2475 17.1875H20.8475V42.6175H31.3C36.845 42.6175 40.1825 39.9025 40.1825 35.4275Z" fill="#7210F5"/>
</svg>
