<svg width="568" height="575" viewBox="0 0 568 575" fill="none" xmlns="http://www.w3.org/2000/svg">
<rect width="564" height="575" fill="white"/>
<g clip-path="url(#clip0_1_97)">
<path d="M37.995 373C37.1925 373 36.3925 372.79 35.69 372.382L28.35 368.04C27.255 367.428 27.79 367.21 28.15 367.082C29.6125 366.575 29.9075 366.457 31.47 365.572C31.6325 365.48 31.8475 365.515 32.015 365.615L37.655 368.962C37.86 369.075 38.1475 369.075 38.335 368.962L60.3225 356.272C60.5275 356.155 60.6575 355.92 60.6575 355.677V330.302C60.6575 330.055 60.525 329.822 60.315 329.697L38.3375 317.017C38.135 316.9 37.865 316.9 37.66 317.017L15.6875 329.7C15.475 329.822 15.34 330.062 15.34 330.302V355.677C15.34 355.92 15.475 356.15 15.6875 356.265L21.71 359.745C24.9775 361.38 26.98 359.455 26.98 357.52V332.467C26.98 332.112 27.265 331.835 27.62 331.835H30.4075C30.755 331.835 31.045 332.115 31.045 332.467V357.52C31.045 361.883 28.67 364.382 24.535 364.382C23.265 364.382 22.2625 364.383 19.47 363.005L13.7 359.687C12.275 358.865 11.395 357.325 11.395 355.677V330.302C11.395 328.655 12.2775 327.115 13.7 326.295L35.6875 313.59C37.08 312.802 38.9275 312.802 40.3075 313.59L62.2925 326.295C63.7175 327.117 64.6025 328.655 64.6025 330.302V355.677C64.6025 357.325 63.7175 358.86 62.2925 359.687L40.3075 372.382C39.6075 372.79 38.81 373 37.995 373ZM55.7475 347.982C55.7475 343.232 52.5375 341.967 45.78 341.075C38.9525 340.172 38.2575 339.705 38.2575 338.107C38.2575 336.787 38.845 335.025 43.9025 335.025C48.42 335.025 50.085 335.997 50.77 339.042C50.83 339.33 51.0925 339.54 51.3875 339.54H54.24C54.4175 339.54 54.585 339.462 54.705 339.337C54.825 339.202 54.89 339.03 54.8725 338.847C54.43 333.602 50.945 331.157 43.9025 331.157C37.6325 331.157 33.8925 333.802 33.8925 338.24C33.8925 343.052 37.6125 344.382 43.63 344.977C50.83 345.682 51.3875 346.735 51.3875 348.15C51.3875 350.608 49.415 351.655 44.7825 351.655C38.965 351.655 37.685 350.195 37.255 347.3C37.205 346.99 36.94 346.762 36.6225 346.762H33.78C33.4275 346.762 33.145 347.042 33.145 347.395C33.145 351.1 35.16 355.515 44.7825 355.515C51.7525 355.518 55.7475 352.775 55.7475 347.982Z" fill="#8BBF3D"/>
</g>
<g clip-path="url(#clip1_1_97)">
<path d="M444.865 496.325L418.668 470.13C417.158 468.622 414.712 468.622 413.197 470.13L407.77 475.567L414.67 482.467C416.283 481.93 418.118 482.292 419.393 483.57C420.683 484.857 421.038 486.715 420.488 488.32L427.132 494.97C428.745 494.412 430.6 494.775 431.883 496.057C433.685 497.857 433.685 500.767 431.883 502.567C430.085 504.365 427.18 504.365 425.383 502.567C424.035 501.215 423.697 499.225 424.372 497.577L418.15 491.387V507.7C418.59 507.915 419.005 508.207 419.37 508.57C421.152 510.372 421.152 513.277 419.37 515.07C417.572 516.872 414.648 516.872 412.848 515.07C411.05 513.272 411.05 510.372 412.848 508.575C413.303 508.125 413.815 507.785 414.36 507.56V491.087C413.817 490.86 413.3 490.532 412.86 490.085C411.498 488.722 411.17 486.73 411.87 485.062L405.09 478.25L387.125 496.202C385.625 497.715 385.625 500.162 387.125 501.675L413.325 527.868C414.835 529.378 417.28 529.378 418.79 527.868L444.865 501.792C446.377 500.285 446.377 497.837 444.865 496.325Z" fill="#E84D31"/>
</g>
<g clip-path="url(#clip2_1_97)">
<path d="M503 403.743C486.425 403.743 473 417.175 473 433.743C473 447 481.595 458.242 493.512 462.205C495.012 462.487 495.562 461.56 495.562 460.762C495.562 460.05 495.538 458.162 495.525 455.662C487.18 457.472 485.42 451.637 485.42 451.637C484.055 448.175 482.082 447.25 482.082 447.25C479.365 445.39 482.293 445.427 482.293 445.427C485.305 445.637 486.887 448.517 486.887 448.517C489.562 453.105 493.91 451.78 495.625 451.012C495.895 449.072 496.668 447.75 497.525 447C490.863 446.25 483.86 443.67 483.86 432.175C483.86 428.9 485.023 426.225 486.947 424.125C486.61 423.367 485.598 420.318 487.21 416.185C487.21 416.185 489.723 415.38 495.46 419.26C497.86 418.593 500.41 418.263 502.96 418.248C505.51 418.263 508.06 418.593 510.46 419.26C516.16 415.38 518.672 416.185 518.672 416.185C520.285 420.318 519.272 423.367 518.972 424.125C520.885 426.225 522.047 428.9 522.047 432.175C522.047 443.7 515.035 446.237 508.36 446.975C509.41 447.875 510.385 449.715 510.385 452.525C510.385 456.54 510.348 459.765 510.348 460.74C510.348 461.527 510.872 462.465 512.41 462.165C524.413 458.23 533 446.98 533 433.743C533 417.175 519.567 403.743 503 403.743Z" fill="black"/>
</g>
<path d="M536.125 313L521.125 328L517.375 354.25L536.125 373L558.625 358L543.625 343L554.875 331.75L536.125 313Z" fill="#00D1B2"/>
<g clip-path="url(#clip3_1_97)">
<path d="M134 52H194V112H134V52ZM189.085 97.69C188.648 94.9525 186.865 92.6525 181.578 90.5075C179.738 89.645 177.692 89.045 177.085 87.6575C176.857 86.8325 176.822 86.3825 176.97 85.895C177.345 84.28 179.257 83.795 180.757 84.245C181.732 84.545 182.633 85.295 183.198 86.495C185.783 84.805 185.782 84.805 187.585 83.6825C186.91 82.6325 186.575 82.18 186.12 81.7325C184.545 79.97 182.447 79.07 179.035 79.1475L177.273 79.37C175.583 79.7825 173.972 80.6825 172.997 81.8825C170.147 85.11 170.97 90.735 174.42 93.06C177.832 95.61 182.823 96.17 183.46 98.5725C184.06 101.497 181.285 102.435 178.545 102.097C176.518 101.647 175.395 100.632 174.157 98.7575L169.582 101.385C170.107 102.585 170.708 103.108 171.608 104.158C175.958 108.548 186.832 108.322 188.785 101.647C188.857 101.422 189.385 99.885 188.97 97.5225L189.085 97.69ZM166.627 79.5775H161.008C161.008 84.4225 160.985 89.2375 160.985 94.09C160.985 97.17 161.143 99.9975 160.64 100.868C159.815 102.59 157.69 102.37 156.725 102.068C155.735 101.578 155.233 100.903 154.65 99.93C154.493 99.6675 154.375 99.44 154.333 99.44L149.77 102.252C150.533 103.827 151.645 105.183 153.08 106.045C155.217 107.32 158.09 107.733 161.097 107.058C163.055 106.493 164.742 105.33 165.625 103.53C166.9 101.205 166.63 98.355 166.617 95.165C166.647 90.03 166.617 84.8925 166.617 79.7175L166.627 79.5775Z" fill="#EFD81D"/>
</g>
<path d="M104.892 468.03C103.202 468.74 102.917 468.805 100.71 468.96C99.085 469.073 98.8175 469.103 97.68 469.483C95.805 470.098 94.1925 471.358 92.63 473.458C91.89 474.453 89.5075 478.24 89.5075 478.428C89.5075 478.57 87.8825 480.923 87.22 481.728C85.785 483.51 84.52 484.425 81.87 485.703C79.945 486.603 78.81 487.013 71.615 489.395C68.9325 490.278 66.2825 491.24 65.6975 491.555C63.5675 492.678 61.91 494.145 60.19 496.4C57.6825 499.7 57.76 499.683 52.585 498.768C52.0241 498.699 51.4613 498.647 50.8975 498.61C49.2875 498.485 48.34 498.72 47.5675 499.445L47 499.983L47.4425 500.203C47.6775 500.328 48.325 500.788 48.845 501.198C49.3825 501.623 49.9975 502.065 50.22 502.175C50.44 502.285 50.645 502.395 50.6775 502.428C50.7075 502.46 50.455 502.853 50.1075 503.31C49.02 504.763 48.625 505.488 48.6725 505.93C48.72 506.34 48.7525 506.355 49.7475 506.355C51.04 506.34 51.8125 506.215 52.9 505.835C54.525 505.253 58.045 503.485 59.86 502.335C61.8 501.085 64.1525 499.84 64.75 499.73C64.955 499.68 65.635 499.555 66.235 499.445C67.685 499.178 69.895 499.208 72.7025 499.57C72.9725 499.603 73.635 499.683 74.2025 499.73C74.77 499.793 75.2775 499.873 75.3375 499.92C75.4025 499.95 76.5225 500.013 77.8325 500.06C80.1675 500.125 80.5925 500.078 81.0825 499.588C81.3975 499.255 82.045 498.01 82.3275 497.125C82.85 495.518 83.37 494.823 83.2425 495.895C82.96 498.31 82.4375 500.125 81.46 501.923C80.8125 503.17 79.8025 504.653 79.125 505.41C78.32 506.278 78.3375 506.31 79.345 506.198C80.8925 506.04 83.0225 505.205 84.585 504.148C86.6525 502.743 88.7025 499.92 90.06 496.573C90.3275 495.898 90.61 496.023 90.5175 496.78C90.485 497.015 90.4225 497.568 90.375 498.025L90.2975 498.845L91.18 498.34C93.2625 497.14 94.715 495.185 96.4975 491.13C97.065 489.835 98.69 483.825 99.18 481.19C99.3571 480.31 99.5833 479.44 99.8575 478.585C100.175 477.513 100.347 477.198 101.057 476.44C101.515 475.965 102.62 475.053 103.502 474.42C105.302 473.158 105.885 472.545 106.47 471.408C106.99 470.365 107.18 468.583 106.8 468.015C106.47 467.51 106.09 467.525 104.892 468.03Z" fill="#BA7257"/>
<g clip-path="url(#clip4_1_97)">
<path d="M65.9825 427.888C62.8225 413.938 55.3525 409.353 54.55 407.6C53.85 406.615 53.225 405.215 52.7125 404C52.6225 405.238 52.575 405.713 51.405 406.96C49.5975 408.375 40.31 416.165 39.555 432.01C38.85 446.79 50.23 455.597 51.775 456.72L51.95 456.845C52.2717 459.224 52.5468 461.61 52.775 464H53.9775C54.2625 461.42 54.6875 458.86 55.2525 456.325C56.295 455.585 56.7625 455.167 57.3775 454.592C60.2899 451.898 62.6045 448.623 64.1716 444.978C65.7386 441.333 66.5234 437.4 66.475 433.432C66.5 431.397 66.2175 429.278 65.9825 427.888ZM52.6425 448.375C52.6425 448.375 52.6425 427.648 53.33 427.65C53.8625 427.65 54.555 454.388 54.555 454.388C53.6025 454.275 52.6425 449.987 52.6425 448.375Z" fill="#52A74B"/>
</g>
<path d="M151.525 512.518H149.165L147.878 519.137H149.972C151.362 519.137 152.398 518.875 153.078 518.353C153.758 517.828 154.215 516.955 154.452 515.73C154.682 514.555 154.578 513.725 154.143 513.243C153.705 512.76 152.835 512.518 151.525 512.518ZM164 501.22C147.433 501.22 134 508.285 134 517C134 525.715 147.433 532.783 164 532.783C180.567 532.783 194 525.715 194 517C194 508.285 180.567 501.22 164 501.22ZM155.85 519.848C155.197 520.473 154.412 520.942 153.557 521.225C152.717 521.495 151.645 521.635 150.345 521.635H147.392L146.575 525.838H143.13L146.205 510.022H152.83C154.823 510.022 156.275 510.545 157.19 511.593C158.105 512.638 158.38 514.098 158.015 515.973C157.875 516.714 157.618 517.429 157.252 518.09C156.895 518.728 156.427 519.315 155.85 519.848ZM165.91 521.635L167.268 514.638C167.425 513.843 167.365 513.298 167.098 513.01C166.83 512.72 166.258 512.575 165.38 512.575H162.65L160.89 521.638H157.47L160.545 505.82H163.962L163.145 510.025H166.19C168.108 510.025 169.427 510.36 170.155 511.028C170.882 511.695 171.1 512.778 170.813 514.275L169.382 521.635H165.91ZM184.903 515.973C184.765 516.715 184.507 517.43 184.14 518.09C183.782 518.728 183.315 519.315 182.738 519.848C182.085 520.471 181.302 520.941 180.445 521.225C179.605 521.495 178.532 521.635 177.23 521.635H174.28L173.462 525.84H170.017L173.093 510.025H179.715C181.707 510.025 183.16 510.548 184.075 511.595C184.99 512.638 185.268 514.098 184.903 515.973ZM178.415 512.518H176.057L174.767 519.137H176.863C178.255 519.137 179.29 518.875 179.967 518.353C180.647 517.828 181.105 516.955 181.345 515.73C181.575 514.555 181.467 513.725 181.032 513.243C180.597 512.76 179.723 512.518 178.415 512.518Z" fill="#7377AD"/>
<path d="M73.575 148.01C73.575 149.492 72.9864 150.914 71.9386 151.962C70.8908 153.01 69.4696 153.599 67.9875 153.6C66.5049 153.6 65.0831 153.011 64.0348 151.963C62.9864 150.914 62.3975 149.493 62.3975 148.01C62.3975 146.528 62.9861 145.106 64.0339 144.058C65.0817 143.01 66.5029 142.421 67.985 142.42C69.4676 142.42 70.8894 143.009 71.9377 144.057C72.9861 145.106 73.575 146.527 73.575 148.01ZM80.195 121.285C76.83 121.285 72.4275 123.685 67.975 127.84C63.525 123.708 59.12 121.335 55.7575 121.335C54.7325 121.335 53.8 121.568 52.9925 122.03C49.555 124.013 48.785 130.19 50.56 137.943C42.95 140.293 38 144.05 38 148.01C38 151.985 42.975 155.753 50.6075 158.085C48.8475 165.868 49.6325 172.055 53.0775 174.035C53.8775 174.503 54.8025 174.723 55.8325 174.723C59.195 174.723 63.6 172.323 68.0525 168.163C72.5025 172.298 76.9075 174.67 80.27 174.67C81.295 174.67 82.2275 174.445 83.035 173.983C86.47 172.003 87.2425 165.825 85.4675 158.07C93.05 155.74 98 151.975 98 148.01C98 144.035 93.025 140.268 85.3925 137.93C87.1525 130.155 86.3675 123.963 82.9225 121.98C82.1275 121.52 81.205 121.288 80.195 121.285ZM80.1825 124.01V124.025C80.745 124.025 81.1975 124.135 81.5775 124.343C83.2425 125.298 83.965 128.93 83.4025 133.603C83.2675 134.753 83.0475 135.965 82.7775 137.203C80.3775 136.613 77.7625 136.16 75.01 135.868C73.36 133.605 71.6475 131.55 69.9225 129.75C73.9025 126.05 77.64 124.02 80.185 124.013L80.1825 124.01ZM55.7575 124.06C58.2875 124.06 62.0425 126.08 66.0325 129.76C64.3175 131.56 62.6075 133.603 60.9825 135.865C58.215 136.158 55.5975 136.61 53.2 137.21C52.92 135.985 52.7125 134.8 52.565 133.66C51.99 128.99 52.7 125.36 54.35 124.393C54.825 124.168 55.35 124.073 55.7575 124.06ZM67.9625 131.685C69.1 132.855 70.2375 134.165 71.3625 135.595C70.2625 135.545 69.1375 135.51 68 135.51C66.85 135.51 65.7125 135.535 64.6 135.595C65.7 134.165 66.8375 132.858 67.9625 131.685ZM68 138.25C69.85 138.25 71.6925 138.335 73.505 138.483C74.52 139.938 75.51 141.49 76.4625 143.133C77.3925 144.733 78.2375 146.358 79.0075 147.998C78.2375 149.635 77.3925 151.273 76.475 152.873C75.525 154.523 74.5425 156.093 73.525 157.548C71.705 157.705 69.86 157.793 68 157.793C66.15 157.793 64.3075 157.705 62.495 157.56C61.48 156.105 60.49 154.55 59.5375 152.91C58.6075 151.31 57.7625 149.685 56.9925 148.045C57.75 146.403 58.6075 144.763 59.525 143.16C60.475 141.51 61.4575 139.945 62.475 138.49C64.295 138.33 66.14 138.245 68 138.245V138.25ZM58.9125 138.885C58.3125 139.828 57.7125 140.793 57.1525 141.785C56.59 142.76 56.065 143.74 55.565 144.72C54.9025 143.08 54.34 141.445 53.875 139.853C55.475 139.478 57.1625 139.143 58.9125 138.885ZM77.0625 138.885C78.8 139.143 80.475 139.46 82.0775 139.853C81.6275 141.433 81.065 143.058 80.4275 144.685C79.9275 143.71 79.4025 142.728 78.8275 141.75C78.265 140.77 77.665 139.815 77.065 138.885H77.0625ZM84.72 140.573C85.93 140.948 87.08 141.365 88.1575 141.818C92.4875 143.668 95.2875 146.088 95.2875 148.008C95.275 149.928 92.475 152.358 88.145 154.195C87.095 154.645 85.945 155.05 84.7575 155.428C84.0575 153.033 83.1425 150.538 82.0075 147.978C83.1325 145.435 84.0325 142.953 84.72 140.568V140.573ZM51.2325 140.583C51.9275 142.983 52.845 145.475 53.9825 148.033C52.8575 150.575 51.9525 153.058 51.2675 155.443C50.0575 155.068 48.9075 154.648 47.8425 154.193C43.5125 152.35 40.7125 149.928 40.7125 148.008C40.7125 146.088 43.5125 143.653 47.8425 141.818C48.8925 141.368 50.0425 140.963 51.2325 140.583ZM80.4275 151.283C81.09 152.925 81.6525 154.563 82.1175 156.153C80.5175 156.545 78.8275 156.878 77.0775 157.128C77.6775 156.19 78.2775 155.223 78.84 154.233C79.4025 153.258 79.925 152.263 80.4275 151.283ZM55.565 151.333C56.065 152.313 56.59 153.29 57.165 154.27C57.74 155.245 58.3275 156.2 58.9275 157.128C57.19 156.873 55.515 156.553 53.9125 156.163C54.3625 154.588 54.9275 152.958 55.5625 151.33L55.565 151.333ZM82.8 158.8C83.08 160.033 83.3 161.22 83.435 162.358C84.01 167.028 83.3 170.658 81.65 171.628C81.2825 171.853 80.805 171.948 80.2425 171.948C77.7125 171.948 73.9575 169.93 69.9675 166.248C71.6825 164.448 73.3925 162.408 75.0175 160.148C77.785 159.853 80.4025 159.4 82.8 158.8ZM53.225 158.825C55.625 159.41 58.24 159.863 60.9925 160.155C62.6425 162.418 64.355 164.473 66.08 166.27C62.0925 169.978 58.35 172.008 55.805 172.008C55.255 171.995 54.79 171.883 54.4225 171.678C52.7575 170.728 52.035 167.093 52.5975 162.42C52.7325 161.27 52.955 160.06 53.225 158.825ZM64.625 160.425C65.725 160.475 66.85 160.51 67.9875 160.51C69.1375 160.51 70.275 160.485 71.3875 160.425C70.2875 161.855 69.15 163.163 68.025 164.338C66.8875 163.163 65.75 161.855 64.625 160.425Z" fill="#5ED3F3"/>
<g clip-path="url(#clip5_1_97)">
<path d="M495 118C511.567 118 525 131.433 525 148C525 164.567 511.567 178 495 178C478.433 178 465 164.567 465 148C465 131.433 478.433 118 495 118ZM489.037 157.995C489.475 159.608 489.427 161.115 488.977 162.475L488.815 162.925C488.755 163.077 488.685 163.225 488.62 163.365C488.27 164.09 487.805 164.765 487.232 165.39C485.487 167.287 483.052 168.007 482.007 167.402C480.882 166.747 481.443 164.065 483.468 161.927C485.645 159.632 488.767 158.155 488.767 158.155V158.148L489.037 157.995ZM513.815 130.843C512.46 125.51 503.623 123.758 495.26 126.73C490.288 128.498 484.9 131.275 481.027 134.897C476.42 139.2 475.687 142.95 475.99 144.518C477.057 150.045 484.632 153.66 487.747 156.342V156.358C486.83 156.808 480.108 160.18 478.533 163.67C476.845 167.345 478.795 169.973 480.07 170.308C484.007 171.398 488.058 169.408 490.233 166.185C492.333 163.033 492.147 158.982 491.242 156.995C492.482 156.657 493.942 156.508 495.817 156.735C501.07 157.335 502.12 160.635 501.892 161.985C501.667 163.332 500.585 164.12 500.208 164.345C499.833 164.573 499.72 164.645 499.755 164.797C499.793 165.022 499.983 165.023 500.28 164.985C500.693 164.91 503.02 163.86 503.133 161.307C503.245 158.082 500.168 154.485 494.695 154.558C492.445 154.598 491.018 154.785 490.008 155.197C489.933 155.085 489.855 155.01 489.745 154.935C486.37 151.298 480.107 148.748 480.37 143.91C480.445 142.148 481.083 137.5 492.37 131.875C501.632 127.26 509.022 128.538 510.297 131.35C512.13 135.36 506.357 142.825 496.72 143.91C493.045 144.323 491.132 142.9 490.642 142.372C490.12 141.81 490.045 141.773 489.857 141.888C489.557 142.038 489.745 142.525 489.857 142.825C490.157 143.575 491.32 144.887 493.347 145.562C495.107 146.125 499.422 146.46 504.597 144.437C510.407 142.19 514.945 135.925 513.632 130.675L513.815 130.843Z" fill="#C76494"/>
</g>
<g clip-path="url(#clip6_1_97)">
<path d="M138.999 532C138.865 532 138.732 531.939 138.615 531.82L137.392 530.553C137.209 530.375 137.298 530.311 137.358 530.274C137.602 530.126 137.651 530.092 137.912 529.834C137.939 529.807 137.975 529.817 138.003 529.846L138.943 530.823C138.977 530.855 139.025 530.855 139.056 530.823L142.72 527.121C142.755 527.087 142.776 527.018 142.776 526.948V519.547C142.776 519.474 142.754 519.407 142.719 519.37L139.056 515.672C139.023 515.638 138.978 515.638 138.943 515.672L135.281 519.371C135.246 519.407 135.223 519.477 135.223 519.547V526.948C135.223 527.018 135.246 527.086 135.281 527.119L136.285 528.134C136.83 528.611 137.163 528.049 137.163 527.485V520.178C137.163 520.075 137.211 519.994 137.27 519.994H137.735C137.793 519.994 137.841 520.075 137.841 520.178V527.485C137.841 528.758 137.445 529.487 136.756 529.487C136.544 529.487 136.377 529.487 135.912 529.085L134.95 528.117C134.713 527.877 134.566 527.428 134.566 526.948V519.547C134.566 519.066 134.713 518.617 134.95 518.378L138.615 514.672C138.847 514.443 139.155 514.443 139.385 514.672L143.049 518.378C143.286 518.618 143.434 519.066 143.434 519.547V526.948C143.434 527.428 143.286 527.876 143.049 528.117L139.385 531.82C139.268 531.939 139.135 532 138.999 532ZM141.958 524.703C141.958 523.318 141.423 522.949 140.297 522.689C139.159 522.425 139.043 522.289 139.043 521.823C139.043 521.438 139.141 520.924 139.984 520.924C140.737 520.924 141.014 521.208 141.128 522.096C141.138 522.18 141.182 522.241 141.231 522.241H141.707C141.736 522.241 141.764 522.218 141.784 522.182C141.804 522.143 141.815 522.092 141.812 522.039C141.738 520.509 141.158 519.796 139.984 519.796C138.939 519.796 138.315 520.568 138.315 521.862C138.315 523.265 138.935 523.653 139.938 523.827C141.138 524.033 141.231 524.339 141.231 524.752C141.231 525.469 140.903 525.774 140.13 525.774C139.161 525.774 138.948 525.349 138.876 524.504C138.868 524.414 138.823 524.348 138.77 524.348H138.297C138.238 524.348 138.191 524.429 138.191 524.532C138.191 525.613 138.527 526.9 140.13 526.9C141.292 526.901 141.958 526.101 141.958 524.703Z" fill="#7377AD"/>
</g>
<path d="M526.425 232.01H521.89V224.415H527.27C530.195 224.415 531.855 225.72 531.855 228.08C531.855 230.6 529.922 232.01 526.42 232.01H526.425ZM527.235 235.025H521.892V243.395H527.47C531.117 243.395 533.05 241.933 533.05 239.183C533.05 236.433 531.062 235.025 527.235 235.025ZM557 232.385V235.43C554.18 235.7 552.458 237.79 551.435 241.1C550.418 244.398 550.278 248.442 550.385 251.565C550.498 254.815 547.965 257.815 544.543 257.815H509.463C506.038 257.815 503.505 254.815 503.62 251.565C503.728 248.442 503.587 244.398 502.57 241.1C501.545 237.79 499.82 235.7 497 235.43V232.385C499.82 232.115 501.548 230.025 502.567 226.715C503.587 223.417 503.728 219.372 503.618 216.25C503.505 213 506.038 210 509.463 210H544.543C547.968 210 550.498 213 550.385 216.25C550.278 219.372 550.418 223.417 551.435 226.715C552.458 230.025 554.18 232.115 557 232.385ZM537.182 239.427C537.182 236.042 534.8 233.595 531.262 233.207V233.065C533.862 232.642 535.902 230.228 535.902 227.533C535.902 223.69 532.87 221.187 528.247 221.187H517.847V246.618H528.3C533.845 246.618 537.182 243.902 537.182 239.427Z" fill="#7210F5"/>
<path d="M248.75 30H301.25L296.475 83.9075L274.943 90L253.533 83.905L248.75 30ZM266.328 54.375L265.747 47.58L290.895 47.5875L291.47 41.0325L258.53 41.025L260.275 61.05H283.09L282.275 69.615L275 71.625L267.613 69.6L267.143 64.325H260.62L261.445 74.7525L275 78.3775L288.447 74.77L290.307 54.3775H266.328V54.375Z" fill="#F7621E"/>
<path d="M381.75 60H434.25L429.475 113.907L407.943 120L386.53 113.905L381.75 60ZM424.475 71.0325L391.525 71.025L392.058 77.58L417.37 77.585L416.733 84.375H400.132L400.733 90.8075H416.187L415.273 99.615L407.997 101.625L400.608 99.6L400.137 94.325H393.612L394.337 103.962L408 108.22L421.432 104.395L424.475 71.0325Z" fill="#2862E9"/>
<g clip-path="url(#clip7_1_97)">
<path d="M298.672 520.062C300.772 523.905 301.968 528.312 301.968 533C301.968 542.948 296.577 551.64 288.56 556.313L296.797 532.495C298.335 528.645 298.847 525.568 298.847 522.835C298.847 521.823 298.782 520.887 298.672 520.062ZM278.72 520.322C280.337 520.247 281.8 520.06 281.8 520.06C283.255 519.872 283.085 517.735 281.632 517.813C281.632 517.813 277.245 518.15 274.432 518.15C271.772 518.15 267.308 517.775 267.308 517.775C265.845 517.7 265.655 519.913 267.12 519.988C267.12 519.988 268.47 520.14 269.932 520.213L274.132 531.725L268.207 549.425L258.385 520.25C260.008 520.175 261.47 520 261.47 520C262.932 519.813 262.76 517.675 261.307 517.76C261.307 517.76 256.942 518.105 254.122 518.105C253.622 518.105 253.028 518.085 252.398 518.067C257.278 510.875 265.587 506.038 275 506.038C282.023 506.038 288.412 508.717 293.215 513.12C293.1 513.112 292.988 513.098 292.863 513.098C290.213 513.098 288.333 515.405 288.333 517.883C288.333 520.108 289.615 521.99 290.982 524.21C292.01 526.01 293.208 528.318 293.208 531.653C293.208 533.94 292.322 536.637 291.155 540.35L288.467 549.312L278.718 520.287L278.72 520.322ZM275 559.96C272.352 559.96 269.797 559.578 267.38 558.868L275.473 535.352L283.76 558.07C283.82 558.202 283.885 558.323 283.955 558.443C281.155 559.425 278.142 559.965 275 559.965M248.027 533C248.027 529.09 248.867 525.375 250.365 522.025L263.225 557.272C254.235 552.9 248.03 543.677 248.027 533ZM275 503C258.463 503 245 516.463 245 533C245 549.537 258.463 563 275 563C291.537 563 305 549.537 305 533C305 516.463 291.537 503 275 503Z" fill="#207196"/>
</g>
<g clip-path="url(#clip8_1_97)">
<path d="M8.8125 214C7.255 214 6 215.255 6 216.812V271.188C6 272.745 7.255 274 8.8125 274H63.1875C64.745 274 66 272.745 66 271.188V216.812C66 215.255 64.745 214 63.1875 214H8.8125ZM52.22 238.375C53.75 238.375 55.105 238.468 56.2875 238.653C57.4028 238.82 58.4973 239.105 59.5525 239.503V245.648C59.046 245.297 58.5078 244.995 57.945 244.745C57.3646 244.484 56.7654 244.267 56.1525 244.095C54.9915 243.771 53.7927 243.603 52.5875 243.595C51.8375 243.595 51.155 243.665 50.54 243.81C49.9919 243.927 49.466 244.131 48.9825 244.415C48.5575 244.675 48.2325 244.987 48 245.35C47.7662 245.715 47.6445 246.141 47.65 246.575C47.65 247.065 47.7825 247.508 48.04 247.898C48.3 248.288 48.67 248.658 49.1475 249.008C49.625 249.358 50.205 249.698 50.8875 250.033C51.57 250.37 52.3425 250.718 53.2025 251.073C54.3775 251.565 55.4325 252.09 56.3675 252.642C57.3025 253.197 58.105 253.825 58.775 254.525C59.445 255.222 59.955 256.02 60.31 256.917C60.665 257.815 60.845 258.858 60.845 260.05C60.845 261.693 60.5325 263.075 59.9125 264.19C59.3067 265.29 58.4374 266.222 57.3825 266.902C56.2455 267.623 54.9852 268.129 53.665 268.392C52.25 268.692 50.7575 268.843 49.19 268.843C47.6472 268.849 46.1072 268.712 44.59 268.433C43.2773 268.205 42.0042 267.79 40.81 267.2V260.625C43.0694 262.548 45.9357 263.61 48.9025 263.625C49.735 263.625 50.4625 263.55 51.0825 263.4C51.705 263.25 52.2225 263.04 52.64 262.775C53.055 262.505 53.365 262.19 53.5725 261.825C53.8018 261.4 53.9062 260.919 53.8734 260.437C53.8407 259.955 53.6722 259.493 53.3875 259.103C53.0161 258.611 52.5617 258.188 52.045 257.853C51.4041 257.428 50.7294 257.056 50.0275 256.743C49.1956 256.363 48.3563 255.999 47.51 255.652C45.215 254.695 43.505 253.522 42.3775 252.14C41.2525 250.757 40.6875 249.085 40.6875 247.128C40.6875 245.593 40.995 244.275 41.61 243.172C42.225 242.07 43.06 241.162 44.12 240.45C45.2412 239.71 46.4859 239.178 47.795 238.878C49.2449 238.536 50.7303 238.367 52.22 238.375ZM14.4375 238.845H38.345V244.26H29.765V268.375H22.9725V244.26H14.4375V238.845Z" fill="#2487CB"/>
</g>
<defs>
<clipPath id="clip0_1_97">
<rect width="60" height="60" fill="white" transform="translate(8 313)"/>
</clipPath>
<clipPath id="clip1_1_97">
<rect width="60" height="60" fill="white" transform="translate(386 469)"/>
</clipPath>
<clipPath id="clip2_1_97">
<rect width="60" height="60" fill="white" transform="translate(473 403)"/>
</clipPath>
<clipPath id="clip3_1_97">
<rect width="60" height="60" fill="white" transform="translate(134 52)"/>
</clipPath>
<clipPath id="clip4_1_97">
<rect width="60" height="60" fill="white" transform="translate(23 404)"/>
</clipPath>
<clipPath id="clip5_1_97">
<rect width="60" height="60" fill="white" transform="translate(465 118)"/>
</clipPath>
<clipPath id="clip6_1_97">
<rect width="10" height="17.5" fill="white" transform="translate(134 514.5)"/>
</clipPath>
<clipPath id="clip7_1_97">
<rect width="60" height="60" fill="white" transform="translate(245 503)"/>
</clipPath>
<clipPath id="clip8_1_97">
<rect width="60" height="60" fill="white" transform="translate(6 214)"/>
</clipPath>
</defs>
</svg>
