<svg width="60" height="60" viewBox="0 0 60 60" fill="none" xmlns="http://www.w3.org/2000/svg">
<g clip-path="url(#clip0_1_57)">
<path d="M58.865 27.325L32.6675 1.13C31.1575 -0.377501 28.7125 -0.377501 27.1975 1.13L21.77 6.5675L28.67 13.4675C30.2825 12.93 32.1175 13.2925 33.3925 14.57C34.6825 15.8575 35.0375 17.715 34.4875 19.32L41.1325 25.97C42.745 25.4125 44.6 25.775 45.8825 27.0575C47.685 28.8575 47.685 31.7675 45.8825 33.5675C44.085 35.365 41.18 35.365 39.3825 33.5675C38.035 32.215 37.6975 30.225 38.3725 28.5775L32.15 22.3875V38.7C32.59 38.915 33.005 39.2075 33.37 39.57C35.1525 41.3725 35.1525 44.2775 33.37 46.07C31.5725 47.8725 28.6475 47.8725 26.8475 46.07C25.05 44.2725 25.05 41.3725 26.8475 39.575C27.3025 39.125 27.815 38.785 28.36 38.56V22.0875C27.8175 21.86 27.3 21.5325 26.86 21.085C25.4975 19.7225 25.17 17.73 25.87 16.0625L19.09 9.25L1.125 27.2025C-0.375 28.715 -0.375 31.1625 1.125 32.675L27.325 58.8675C28.835 60.3775 31.28 60.3775 32.79 58.8675L58.865 32.7925C60.3775 31.285 60.3775 28.8375 58.865 27.325Z" fill="#E84D31"/>
</g>
<defs>
<clipPath id="clip0_1_57">
<rect width="60" height="60" fill="white"/>
</clipPath>
</defs>
</svg>
