<svg width="60" height="60" viewBox="0 0 60 60" fill="none" xmlns="http://www.w3.org/2000/svg">
<g clip-path="url(#clip0_1_62)">
<path d="M42.9825 23.8875C39.8225 9.9375 32.3525 5.3525 31.55 3.6C30.85 2.615 30.225 1.215 29.7125 0C29.6225 1.2375 29.575 1.7125 28.405 2.96C26.5975 4.375 17.31 12.165 16.555 28.01C15.85 42.79 27.23 51.5975 28.775 52.72L28.95 52.845C29.2717 55.2244 29.5468 57.6098 29.775 60H30.9775C31.2625 57.42 31.6875 54.86 32.2525 52.325C33.295 51.585 33.7625 51.1675 34.3775 50.5925C37.2899 47.8982 39.6044 44.6228 41.1715 40.9778C42.7386 37.3329 43.5233 33.3997 43.475 29.4325C43.5 27.3975 43.2175 25.2775 42.9825 23.8875ZM29.6425 44.375C29.6425 44.375 29.6425 23.6475 30.33 23.65C30.8625 23.65 31.555 50.3875 31.555 50.3875C30.6025 50.275 29.6425 45.9875 29.6425 44.375Z" fill="#52A74B"/>
</g>
<defs>
<clipPath id="clip0_1_62">
<rect width="60" height="60" fill="white"/>
</clipPath>
</defs>
</svg>
