<svg width="10" height="18" viewBox="0 0 10 18" fill="none" xmlns="http://www.w3.org/2000/svg">
<g clip-path="url(#clip0_1_78)">
<path d="M4.99919 18.0001C4.86544 18.0001 4.73211 17.9389 4.61502 17.82L3.39169 16.5534C3.20919 16.3748 3.29836 16.3114 3.35836 16.2742C3.60211 16.1261 3.65127 16.0919 3.91169 15.8338C3.93877 15.8068 3.97461 15.817 4.00252 15.8461L4.94252 16.8225C4.97669 16.8553 5.02461 16.8553 5.05586 16.8225L8.72044 13.1213C8.75461 13.087 8.77627 13.0184 8.77627 12.9477V5.54667C8.77627 5.47448 8.75419 5.40667 8.71919 5.37021L5.05627 1.67188C5.02252 1.63761 4.97752 1.63761 4.94336 1.67188L1.28127 5.37094C1.24586 5.40667 1.22336 5.47667 1.22336 5.54667V12.9477C1.22336 13.0184 1.24586 13.0855 1.28127 13.1191L2.28502 14.1341C2.82961 14.6109 3.16336 14.0495 3.16336 13.4851V6.17813C3.16336 6.07459 3.21086 5.99365 3.27002 5.99365H3.73461C3.79252 5.99365 3.84086 6.07531 3.84086 6.17813V13.4851C3.84086 14.7575 3.44502 15.4867 2.75586 15.4867C2.54419 15.4867 2.37711 15.4867 1.91169 15.0849L0.950024 14.1173C0.712524 13.8774 0.565857 13.4282 0.565857 12.9477V5.54667C0.565857 5.06615 0.71294 4.61698 0.950024 4.37781L4.61461 0.672189C4.84669 0.442502 5.15461 0.442502 5.38461 0.672189L9.04877 4.37781C9.28627 4.61771 9.43377 5.06615 9.43377 5.54667V12.9477C9.43377 13.4282 9.28627 13.8759 9.04877 14.1173L5.38461 17.82C5.26794 17.9389 5.13502 18.0001 4.99919 18.0001ZM7.95794 10.7033C7.95794 9.31792 7.42294 8.94896 6.29669 8.68865C5.15877 8.42542 5.04294 8.28906 5.04294 7.82313C5.04294 7.43813 5.14086 6.92406 5.98377 6.92406C6.73669 6.92406 7.01419 7.20771 7.12836 8.09584C7.13836 8.17969 7.18211 8.24094 7.23127 8.24094H7.70669C7.73627 8.24094 7.76419 8.21834 7.78419 8.18188C7.80419 8.1425 7.81502 8.09219 7.81211 8.03896C7.73836 6.50917 7.15752 5.79604 5.98377 5.79604C4.93877 5.79604 4.31544 6.5675 4.31544 7.86177C4.31544 9.26542 4.93544 9.65334 5.93836 9.82688C7.13836 10.0325 7.23127 10.3395 7.23127 10.7522C7.23127 11.469 6.90252 11.7745 6.13044 11.7745C5.16086 11.7745 4.94752 11.3486 4.87586 10.5043C4.86752 10.4139 4.82336 10.3475 4.77044 10.3475H4.29669C4.23794 10.3475 4.19086 10.4292 4.19086 10.532C4.19086 11.6126 4.52669 12.9003 6.13044 12.9003C7.29211 12.901 7.95794 12.1011 7.95794 10.7033Z" fill="#7377AD"/>
</g>
<defs>
<clipPath id="clip0_1_78">
<rect width="10" height="17.5" fill="white" transform="translate(0 0.5)"/>
</clipPath>
</defs>
</svg>
