<svg width="60" height="60" viewBox="0 0 60 60" fill="none" xmlns="http://www.w3.org/2000/svg">
<g clip-path="url(#clip0_1_68)">
<path d="M29.995 60C29.1925 60 28.3925 59.79 27.69 59.3825L20.35 55.04C19.255 54.4275 19.79 54.21 20.15 54.0825C21.6125 53.575 21.9075 53.4575 23.47 52.5725C23.6325 52.48 23.8475 52.515 24.015 52.615L29.655 55.9625C29.86 56.075 30.1475 56.075 30.335 55.9625L52.3225 43.2725C52.5275 43.155 52.6575 42.92 52.6575 42.6775V17.3025C52.6575 17.055 52.525 16.8225 52.315 16.6975L30.3375 4.0175C30.135 3.9 29.865 3.9 29.66 4.0175L7.68752 16.7C7.47502 16.8225 7.34002 17.0625 7.34002 17.3025V42.6775C7.34002 42.92 7.47502 43.15 7.68752 43.265L13.71 46.745C16.9775 48.38 18.98 46.455 18.98 44.52V19.4675C18.98 19.1125 19.265 18.835 19.62 18.835H22.4075C22.755 18.835 23.045 19.115 23.045 19.4675V44.52C23.045 48.8825 20.67 51.3825 16.535 51.3825C15.265 51.3825 14.2625 51.3825 11.47 50.005L5.70002 46.6875C4.27502 45.865 3.39502 44.325 3.39502 42.6775V17.3025C3.39502 15.655 4.27752 14.115 5.70002 13.295L27.6875 0.589999C29.08 -0.197501 30.9275 -0.197501 32.3075 0.589999L54.2925 13.295C55.7175 14.1175 56.6025 15.655 56.6025 17.3025V42.6775C56.6025 44.325 55.7175 45.86 54.2925 46.6875L32.3075 59.3825C31.6075 59.79 30.81 60 29.995 60ZM47.7475 34.9825C47.7475 30.2325 44.5375 28.9675 37.78 28.075C30.9525 27.1725 30.2575 26.705 30.2575 25.1075C30.2575 23.7875 30.845 22.025 35.9025 22.025C40.42 22.025 42.085 22.9975 42.77 26.0425C42.83 26.33 43.0925 26.54 43.3875 26.54H46.24C46.4175 26.54 46.585 26.4625 46.705 26.3375C46.825 26.2025 46.89 26.03 46.8725 25.8475C46.43 20.6025 42.945 18.1575 35.9025 18.1575C29.6325 18.1575 25.8925 20.8025 25.8925 25.24C25.8925 30.0525 29.6125 31.3825 35.63 31.9775C42.83 32.6825 43.3875 33.735 43.3875 35.15C43.3875 37.6075 41.415 38.655 36.7825 38.655C30.965 38.655 29.685 37.195 29.255 34.3C29.205 33.99 28.94 33.7625 28.6225 33.7625H25.78C25.4275 33.7625 25.145 34.0425 25.145 34.395C25.145 38.1 27.16 42.515 36.7825 42.515C43.7525 42.5175 47.7475 39.775 47.7475 34.9825Z" fill="#8BBF3D"/>
</g>
<defs>
<clipPath id="clip0_1_68">
<rect width="60" height="60" fill="white"/>
</clipPath>
</defs>
</svg>
