<svg width="60" height="60" viewBox="0 0 60 60" fill="none" xmlns="http://www.w3.org/2000/svg">
<path d="M17.525 25.5175H15.165L13.8775 32.1375H15.9725C17.3625 32.1375 18.3975 31.875 19.0775 31.3525C19.7575 30.8275 20.215 29.955 20.4525 28.73C20.6825 27.555 20.5775 26.725 20.1425 26.2425C19.705 25.76 18.835 25.5175 17.525 25.5175ZM30 14.22C13.4325 14.22 0 21.285 0 30C0 38.715 13.4325 45.7825 30 45.7825C46.5675 45.7825 60 38.715 60 30C60 21.285 46.5675 14.22 30 14.22ZM21.85 32.8475C21.1975 33.4725 20.4125 33.9425 19.5575 34.225C18.7175 34.495 17.645 34.635 16.345 34.635H13.3925L12.575 38.8375H9.13L12.205 23.0225H18.83C20.8225 23.0225 22.275 23.545 23.19 24.5925C24.105 25.6375 24.38 27.0975 24.015 28.9725C23.8752 29.7144 23.6178 30.4293 23.2525 31.09C22.895 31.7275 22.4275 32.315 21.85 32.8475ZM31.91 34.635L33.2675 27.6375C33.425 26.8425 33.365 26.2975 33.0975 26.01C32.83 25.72 32.2575 25.575 31.38 25.575H28.65L26.89 34.6375H23.47L26.545 18.82H29.9625L29.145 23.025H32.19C34.1075 23.025 35.4275 23.36 36.155 24.0275C36.8825 24.695 37.1 25.7775 36.8125 27.275L35.3825 34.635H31.91ZM50.9025 28.9725C50.765 29.715 50.5074 30.4302 50.14 31.09C49.7825 31.7275 49.315 32.315 48.7375 32.8475C48.0846 33.4706 47.3017 33.9411 46.445 34.225C45.605 34.495 44.5325 34.635 43.23 34.635H40.28L39.4625 38.84H36.0175L39.0925 23.025H45.715C47.7075 23.025 49.16 23.5475 50.075 24.595C50.99 25.6375 51.2675 27.0975 50.9025 28.9725ZM44.415 25.5175H42.0575L40.7675 32.1375H42.8625C44.255 32.1375 45.29 31.875 45.9675 31.3525C46.6475 30.8275 47.105 29.955 47.345 28.73C47.575 27.555 47.4675 26.725 47.0325 26.2425C46.5975 25.76 45.7225 25.5175 44.415 25.5175Z" fill="#7377AD"/>
</svg>
