<svg width="60" height="60" viewBox="0 0 60 60" fill="none" xmlns="http://www.w3.org/2000/svg">
<g clip-path="url(#clip0_1_60)">
<path d="M53.6725 17.0625C55.7725 20.905 56.9675 25.3125 56.9675 30C56.9675 39.9475 51.5775 48.64 43.56 53.3125L51.7975 29.495C53.335 25.645 53.8475 22.5675 53.8475 19.835C53.8475 18.8225 53.7825 17.8875 53.6725 17.0625ZM33.72 17.3225C35.3375 17.2475 36.8 17.06 36.8 17.06C38.255 16.8725 38.085 14.735 36.6325 14.8125C36.6325 14.8125 32.245 15.15 29.4325 15.15C26.7725 15.15 22.3075 14.775 22.3075 14.775C20.845 14.7 20.655 16.9125 22.12 16.9875C22.12 16.9875 23.47 17.14 24.9325 17.2125L29.1325 28.725L23.2075 46.425L13.385 17.25C15.0075 17.175 16.47 17 16.47 17C17.9325 16.8125 17.76 14.675 16.3075 14.76C16.3075 14.76 11.9425 15.105 9.1225 15.105C8.6225 15.105 8.0275 15.085 7.3975 15.0675C12.2775 7.875 20.5875 3.0375 30 3.0375C37.0225 3.0375 43.4125 5.7175 48.215 10.12C48.1 10.1125 47.9875 10.0975 47.8625 10.0975C45.2125 10.0975 43.3325 12.405 43.3325 14.8825C43.3325 17.1075 44.615 18.99 45.9825 21.21C47.01 23.01 48.2075 25.3175 48.2075 28.6525C48.2075 30.94 47.3225 33.6375 46.155 37.35L43.4675 46.3125L33.7175 17.2875L33.72 17.3225ZM30 56.96C27.3525 56.96 24.7975 56.5775 22.38 55.8675L30.4725 32.3525L38.76 55.07C38.82 55.2025 38.885 55.3225 38.955 55.4425C36.155 56.425 33.1425 56.965 30 56.965M3.0275 30C3.0275 26.09 3.8675 22.375 5.365 19.025L18.225 54.2725C9.235 49.9 3.03 40.6775 3.0275 30ZM30 0C13.4625 0 0 13.4625 0 30C0 46.5375 13.4625 60 30 60C46.5375 60 60 46.5375 60 30C60 13.4625 46.5375 0 30 0Z" fill="#207196"/>
</g>
<defs>
<clipPath id="clip0_1_60">
<rect width="60" height="60" fill="white"/>
</clipPath>
</defs>
</svg>
